<svg xmlns="http://www.w3.org/2000/svg" xmlns:xlink="http://www.w3.org/1999/xlink" width="256" height="256" viewBox="0 0 256 256">
  <defs>
    <clipPath id="clip-Close_Button_Hover">
      <rect width="256" height="256"/>
    </clipPath>
  </defs>
  <g id="Close_Button_Hover" data-name="Close Button Hover" clip-path="url(#clip-Close_Button_Hover)">
    <path id="X_Hover" d="M-1864,256a128.945,128.945,0,0,1-25.8-2.6,127.355,127.355,0,0,1-24.027-7.458,128.016,128.016,0,0,1-21.743-11.8,128.93,128.93,0,0,1-18.944-15.63,128.929,128.929,0,0,1-15.63-18.944,128,128,0,0,1-11.8-21.743A127.349,127.349,0,0,1-1989.4,153.8,128.949,128.949,0,0,1-1992,128a128.949,128.949,0,0,1,2.6-25.8,127.34,127.34,0,0,1,7.458-24.027,127.994,127.994,0,0,1,11.8-21.743,128.929,128.929,0,0,1,15.63-18.944,128.93,128.93,0,0,1,18.944-15.63,128.017,128.017,0,0,1,21.743-11.8A127.355,127.355,0,0,1-1889.8,2.6,128.945,128.945,0,0,1-1864,0a128.948,128.948,0,0,1,25.8,2.6,127.355,127.355,0,0,1,24.027,7.458,128.016,128.016,0,0,1,21.743,11.8,128.928,128.928,0,0,1,18.944,15.63,128.926,128.926,0,0,1,15.63,18.944,128,128,0,0,1,11.8,21.743A127.34,127.34,0,0,1-1738.6,102.2,128.949,128.949,0,0,1-1736,128a128.949,128.949,0,0,1-2.6,25.8,127.349,127.349,0,0,1-7.458,24.027,128,128,0,0,1-11.8,21.743,128.924,128.924,0,0,1-15.63,18.944,128.928,128.928,0,0,1-18.944,15.63,128.015,128.015,0,0,1-21.743,11.8A127.355,127.355,0,0,1-1838.2,253.4,128.947,128.947,0,0,1-1864,256Zm.317-106.469,49.5,49.5a14.9,14.9,0,0,0,10.606,4.394,14.905,14.905,0,0,0,10.607-4.394,15.017,15.017,0,0,0,0-21.213l-49.5-49.5,49.5-49.5a15.018,15.018,0,0,0,0-21.213,14.9,14.9,0,0,0-10.607-4.394,14.9,14.9,0,0,0-10.607,4.394l-49.5,49.5-49.5-49.5a14.9,14.9,0,0,0-10.606-4.393,14.9,14.9,0,0,0-10.607,4.393,14.9,14.9,0,0,0-4.394,10.607,14.9,14.9,0,0,0,4.394,10.607l49.5,49.5-49.5,49.5a14.9,14.9,0,0,0-4.394,10.606,14.9,14.9,0,0,0,4.394,10.607,14.9,14.9,0,0,0,10.606,4.394,14.9,14.9,0,0,0,10.607-4.394l49.5-49.5Z" transform="translate(1992)" fill="#fff"/>
  </g>
</svg>
