<svg xmlns="http://www.w3.org/2000/svg" xmlns:xlink="http://www.w3.org/1999/xlink" width="827" height="194" viewBox="0 0 827 194">
  <defs>
    <style>
      .cls-1 {
        clip-path: url(#clip-Drive_Icon_Logo);
      }

      .cls-2 {
        fill: #fff;
      }
    </style>
    <clipPath id="clip-Drive_Icon_Logo">
      <rect width="827" height="194"/>
    </clipPath>
  </defs>
  <g id="Drive_Icon_Logo" data-name="Drive_Icon&amp;Logo" class="cls-1">
    <g id="Icon_Logo" data-name="Icon&amp;Logo">
      <path id="Icon" class="cls-2" d="M199.158,121.531H139.22L79.7,6h49.7a9.237,9.237,0,0,1,8.073,4.746ZM96.52,58.821,34.456,177.911,4.612,130.959a9.236,9.236,0,0,1-.254-9.487L69.3,6Zm102.453,71.953-29.581,46.55a9.242,9.242,0,0,1-7.8,4.284H42.959l26.48-50.834Z" transform="translate(-3.17 4.191)"/>
      <path id="Caminho_9" data-name="Caminho 9" class="cls-2" d="M65.463,94.406a26.008,26.008,0,0,1-11.438,7.517A47.9,47.9,0,0,1,37.643,104.6a32.451,32.451,0,0,1-16.557-4.121A27.484,27.484,0,0,1,10.1,88.512,42.105,42.105,0,0,1,6.127,70.081V65.136A44.717,44.717,0,0,1,9.8,46.28,27.157,27.157,0,0,1,20.387,34.093a30.5,30.5,0,0,1,16.207-4.221q12.936,0,20.228,6.169T65.463,54H50.879q-1-6.244-4.42-9.141t-9.415-2.9q-7.642,0-11.637,5.744T21.361,64.786v4.645q0,11.438,4.345,17.282t12.736,5.844q8.441,0,12.037-3.6V76.424H36.844V65.386H65.463Zm6.895-18.331a32.053,32.053,0,0,1,3.1-14.335A22.67,22.67,0,0,1,84.37,52a26.009,26.009,0,0,1,13.51-3.446q10.938,0,17.856,6.693t7.717,18.181l.1,3.7q0,12.437-6.942,19.955T97.98,104.6q-11.687,0-18.655-7.492T72.358,76.724ZM86.792,77.1q0,7.7,2.9,11.781a10.406,10.406,0,0,0,16.482.05q2.947-4.027,2.947-12.881,0-7.554-2.947-11.706a9.579,9.579,0,0,0-8.291-4.152,9.422,9.422,0,0,0-8.191,4.127Q86.792,68.445,86.792,77.1Zm41.357-1.025a32.054,32.054,0,0,1,3.1-14.335A22.67,22.67,0,0,1,140.161,52a26.009,26.009,0,0,1,13.51-3.446q10.938,0,17.856,6.693t7.717,18.181l.1,3.7q0,12.437-6.942,19.955t-18.63,7.517q-11.687,0-18.655-7.492t-6.967-20.379ZM142.584,77.1q0,7.7,2.9,11.781a10.406,10.406,0,0,0,16.482.05q2.947-4.027,2.947-12.881,0-7.554-2.947-11.706a9.579,9.579,0,0,0-8.291-4.152,9.422,9.422,0,0,0-8.191,4.127Q142.584,68.445,142.584,77.1Zm41.507-.925q0-12.437,5.919-20.03a19.177,19.177,0,0,1,15.958-7.592q8.89,0,13.835,6.094l.6-5.095h13.086V101.8a23.1,23.1,0,0,1-3.222,12.337,20.69,20.69,0,0,1-9.065,7.992,31.866,31.866,0,0,1-13.685,2.747,29.632,29.632,0,0,1-11.587-2.373,20.566,20.566,0,0,1-8.541-6.119l6.393-8.791a16.908,16.908,0,0,0,13.086,6.044q5.744,0,8.94-3.072t3.2-8.716v-2.9a16.7,16.7,0,0,1-13.136,5.644,19.127,19.127,0,0,1-15.758-7.617q-6.018-7.617-6.018-20.2Zm14.434,1.075q0,7.354,2.947,11.531a9.374,9.374,0,0,0,8.091,4.177q6.593,0,9.44-4.953V65.244q-2.9-4.953-9.34-4.953a9.433,9.433,0,0,0-8.166,4.252Q198.525,68.8,198.525,77.249ZM257.763,103.6H243.279V26.875h14.484Zm34.714,1q-11.887,0-19.354-7.293t-7.467-19.43v-1.4a32.65,32.65,0,0,1,3.147-14.56,23.094,23.094,0,0,1,8.915-9.89,25.022,25.022,0,0,1,13.161-3.471q11.088,0,17.456,6.993t6.368,19.83v5.894H280.291a13.41,13.41,0,0,0,4.22,8.491,12.758,12.758,0,0,0,8.915,3.2q8.341,0,13.036-6.044l7.092,7.942a21.669,21.669,0,0,1-8.79,7.168A28.839,28.839,0,0,1,292.477,104.6Zm-1.648-44.4a9.019,9.019,0,0,0-6.967,2.91q-2.672,2.91-3.421,8.329h20.078V70.275q-.1-4.816-2.6-7.45A9.306,9.306,0,0,0,290.829,60.191Zm54.4,43.406V30.871H367.6a33.979,33.979,0,0,1,17.156,4.321,30.128,30.128,0,0,1,11.812,12.287,37.9,37.9,0,0,1,4.245,18.107v3.347a38.008,38.008,0,0,1-4.17,18.032A29.869,29.869,0,0,1,384.881,99.2a34.235,34.235,0,0,1-17.131,4.4Zm14.984-60.588v48.55h7.242q8.79,0,13.435-5.744t4.745-16.433V65.536q0-11.089-4.6-16.808T367.6,43.009Zm78.867,20.08a39.214,39.214,0,0,0-5.194-.4q-8.191,0-10.738,5.544V103.6H408.707V49.552h13.635l.4,6.443q4.345-7.442,12.037-7.442a15.124,15.124,0,0,1,4.5.649ZM459.2,103.6H444.721V49.552H459.2ZM443.871,35.566a7.109,7.109,0,0,1,2.173-5.345,9.363,9.363,0,0,1,11.812,0,7.068,7.068,0,0,1,2.2,5.345,7.087,7.087,0,0,1-2.223,5.394,9.258,9.258,0,0,1-11.737,0A7.087,7.087,0,0,1,443.871,35.566Zm45.4,50.4,10.039-36.413H514.4L496.167,103.6H482.382l-18.23-54.045h15.084ZM542.918,104.6q-11.887,0-19.354-7.293T516.1,77.873v-1.4a32.65,32.65,0,0,1,3.147-14.56,23.094,23.094,0,0,1,8.915-9.89,25.022,25.022,0,0,1,13.161-3.471q11.088,0,17.456,6.993t6.368,19.83v5.894H530.731a13.41,13.41,0,0,0,4.22,8.491,12.758,12.758,0,0,0,8.915,3.2q8.341,0,13.036-6.044L564,94.856a21.668,21.668,0,0,1-8.79,7.168A28.839,28.839,0,0,1,542.918,104.6Zm-1.648-44.4A9.019,9.019,0,0,0,534.3,63.1q-2.672,2.91-3.421,8.329h20.078V70.275q-.1-4.816-2.6-7.45A9.305,9.305,0,0,0,541.27,60.191Z" transform="translate(261.856 22.125)"/>
    </g>
  </g>
</svg>
