<svg xmlns="http://www.w3.org/2000/svg" xmlns:xlink="http://www.w3.org/1999/xlink" width="1026" height="1026" viewBox="0 0 1026 1026">
  <defs>
    <clipPath id="clip-Foto_Perfil">
      <rect width="1026" height="1026"/>
    </clipPath>
  </defs>
  <g id="Foto_Perfil" data-name="Foto Perfil" clip-path="url(#clip-Foto_Perfil)">
    <g id="Grupo_2" data-name="Grupo 2" transform="translate(0 -0.267)">
      <g id="Grupo_1" data-name="Grupo 1" transform="translate(62.09 61.873)">
        <g id="Retângulo_1" data-name="Retângulo 1" transform="translate(-0.09 0.394)" stroke="#fff" stroke-width="15">
          <rect width="902" height="902" rx="451" stroke="none"/>
          <rect x="7.5" y="7.5" width="887" height="887" rx="443.5" fill="none"/>
        </g>
        <circle id="Elipse_1" data-name="Elipse 1" cx="165" cy="165" r="165" transform="translate(94.91 221.394)" fill="#fff"/>
        <ellipse id="Elipse_2" data-name="Elipse 2" cx="164.5" cy="165" rx="164.5" ry="165" transform="translate(478.91 221.394)" fill="#fff"/>
        <ellipse id="Elipse_3" data-name="Elipse 3" cx="73" cy="73.5" rx="73" ry="73.5" transform="translate(112.91 282.394)"/>
        <ellipse id="Elipse_4" data-name="Elipse 4" cx="72.5" cy="73.5" rx="72.5" ry="73.5" transform="translate(627.91 270.394)"/>
      </g>
      <path id="Subtração_1" data-name="Subtração 1" d="M513,1026a521.178,521.178,0,0,1-52.451-2.649,514.608,514.608,0,0,1-50.936-7.773c-16.525-3.382-33.066-7.635-49.163-12.641-15.912-4.949-31.77-10.753-47.132-17.251-15.214-6.435-30.3-13.7-44.843-21.6-14.434-7.841-28.664-16.487-42.3-25.7-13.567-9.166-26.855-19.1-39.493-29.532-6.5-5.363-12.975-10.984-19.249-16.706l16.972-16.972A487.9,487.9,0,0,0,513,1002.25c269.773,0,489.25-219.477,489.25-489.25a487.691,487.691,0,0,0-22.595-147.118l18.888-18.888c1.53,4.473,3.007,9,4.393,13.457,5.007,16.1,9.26,32.64,12.641,49.162a514.333,514.333,0,0,1,7.774,50.936,520.674,520.674,0,0,1,0,104.9,514.376,514.376,0,0,1-7.774,50.936c-3.38,16.52-7.633,33.061-12.641,49.162-4.95,15.916-10.755,31.773-17.251,47.132-6.438,15.221-13.706,30.308-21.6,44.844-7.842,14.436-16.487,28.666-25.7,42.3-9.167,13.569-19.1,26.856-29.533,39.493-10.408,12.612-21.548,24.869-33.109,36.43s-23.822,22.7-36.43,33.11c-12.639,10.43-25.926,20.366-39.493,29.532-13.63,9.209-27.861,17.854-42.3,25.7-14.543,7.9-29.631,15.168-44.844,21.6-15.361,6.5-31.218,12.3-47.132,17.251-16.1,5.006-32.638,9.26-49.162,12.641a514.6,514.6,0,0,1-50.936,7.773A521.2,521.2,0,0,1,513,1026ZM133.847,858.562h0c-4.417-4.844-8.792-9.829-13-14.816l17.015-17.015c4.2,5.013,8.56,10.013,12.962,14.86l-16.971,16.971ZM91.671,805.74h0c-1.365-1.961-2.73-3.951-4.058-5.916-2.385-3.53-4.766-7.153-7.079-10.769L97.887,771.7c3.527,5.64,7.229,11.3,11.005,16.819l-17.22,17.22ZM56.037,746.375h0c-3.143-6.145-6.206-12.443-9.1-18.72L65,709.591c2.79,6.334,5.767,12.718,8.85,18.974L56.038,746.374ZM27.7,679.713v0c-1.61-4.686-3.17-9.451-4.635-14.161-5.006-16.1-9.259-32.636-12.641-49.162a514.1,514.1,0,0,1-7.773-50.936,520.648,520.648,0,0,1,0-104.9,514.067,514.067,0,0,1,7.773-50.936c3.383-16.531,7.636-33.072,12.641-49.162,4.949-15.912,10.753-31.77,17.25-47.133,6.436-15.217,13.7-30.3,21.6-44.843,7.842-14.436,16.487-28.666,25.7-42.3,9.165-13.566,19.1-26.853,29.532-39.493,10.41-12.613,21.55-24.87,33.11-36.43s23.818-22.7,36.43-33.11c12.639-10.431,25.927-20.367,39.493-29.532,13.63-9.209,27.861-17.854,42.3-25.7,14.539-7.9,29.627-15.167,44.843-21.6,15.362-6.5,31.219-12.3,47.132-17.25,16.1-5.006,32.638-9.259,49.163-12.641a514.317,514.317,0,0,1,50.936-7.773,520.648,520.648,0,0,1,104.9,0,514.324,514.324,0,0,1,50.936,7.773c16.527,3.382,33.067,7.635,49.162,12.641,15.91,4.949,31.768,10.753,47.132,17.25,15.216,6.436,30.3,13.7,44.844,21.6,14.436,7.842,28.667,16.488,42.3,25.7,13.565,9.165,26.852,19.1,39.493,29.532,6.669,5.5,13.312,11.277,19.744,17.157l-16.971,16.971A487.819,487.819,0,0,0,513,23.75C243.227,23.75,23.75,243.227,23.75,513A487.66,487.66,0,0,0,46.573,660.839L27.7,679.712Zm933.6-362.644h0c-2.791-6.362-5.761-12.753-8.827-19l17.817-17.817c3.143,6.165,6.2,12.471,9.082,18.744L961.3,317.068Zm-32.816-62.184h0c-3.529-5.66-7.225-11.325-10.984-16.839l17.225-17.225c1.25,1.8,2.484,3.6,3.67,5.358,2.514,3.721,5.02,7.539,7.449,11.349l-17.358,17.358Zm-39.9-55.1h0c-4.2-5.028-8.555-10.034-12.945-14.881L892.6,167.932c4.421,4.861,8.791,9.853,12.989,14.838l-17.016,17.016Z" transform="translate(0 0.267)" fill="#fff"/>
    </g>
  </g>
</svg>
