<svg xmlns="http://www.w3.org/2000/svg" xmlns:xlink="http://www.w3.org/1999/xlink" width="605" height="196" viewBox="0 0 605 196">
  <defs>
    <style>
      .cls-1 {
        clip-path: url(#clip-GitHub_Icon_Logo);
      }

      .cls-2, .cls-3 {
        fill: #fff;
      }

      .cls-3 {
        fill-rule: evenodd;
      }
    </style>
    <clipPath id="clip-GitHub_Icon_Logo">
      <rect width="605" height="196"/>
    </clipPath>
  </defs>
  <g id="GitHub_Icon_Logo" data-name="GitHub_Icon&amp;Logo" class="cls-1">
    <g id="Icon_Logo" data-name="Icon&amp;Logo" transform="translate(-87 -46)">
      <g id="GitHub_Logo" transform="translate(332 94.99)">
        <g id="Name" transform="translate(0 0.01)">
          <path id="B" class="cls-2" d="M336.35,31.038a31.616,31.616,0,0,0-16.14,4.318V4.959A1.415,1.415,0,0,0,318.8,3.53H301.71a1.422,1.422,0,0,0-1.41,1.429v89.76a1.424,1.424,0,0,0,1.41,1.439h11.86a1.429,1.429,0,0,0,1.24-.765,28.752,28.752,0,0,0,.72-4.137s6.99,6.663,20.22,6.663c15.53,0,24.44-7.931,24.44-35.6s-14.23-31.282-23.84-31.282Zm-6.67,50.577a20.157,20.157,0,0,1-9.84-2.858V50.332a22.369,22.369,0,0,1,8.74-2.858c6.09-.554,11.96,1.3,11.96,15.923,0,15.42-2.65,18.459-10.85,18.218Z" transform="translate(-0.19 -0.01)"/>
          <path id="U" class="cls-2" d="M290.12,32.87H273.21a1.419,1.419,0,0,0-1.41,1.43V78.03a19.129,19.129,0,0,1-10.39,3.14c-6.09,0-7.72-2.77-7.72-8.74V34.3a1.419,1.419,0,0,0-1.41-1.43H235.12a1.426,1.426,0,0,0-1.41,1.43V75.32c0,17.73,9.88,22.07,23.48,22.07,11.15,0,20.15-6.16,20.15-6.16a36.43,36.43,0,0,0,.62,3.63,1.492,1.492,0,0,0,1.24.77l10.92-.05a1.423,1.423,0,0,0,1.41-1.42V34.3a1.428,1.428,0,0,0-1.42-1.43Z" transform="translate(-0.147 0.6)"/>
          <path id="H" class="cls-2" d="M225.36,4.959a1.407,1.407,0,0,0-1.4-1.429H206.92a1.422,1.422,0,0,0-1.41,1.429V38.108H178.95V4.959a1.415,1.415,0,0,0-1.41-1.429H160.5a1.422,1.422,0,0,0-1.41,1.429V94.731a1.424,1.424,0,0,0,1.41,1.439h17.04a1.424,1.424,0,0,0,1.41-1.439V56.338h26.56l-.05,38.393a1.424,1.424,0,0,0,1.41,1.439h17.08a1.43,1.43,0,0,0,1.41-1.439V4.959Z" transform="translate(-0.103 -0.01)"/>
          <path id="T" class="cls-2" d="M149.29,32.72H136.51s-.02-16.88-.02-16.89c0-.64-.33-.96-1.07-.96H118c-.68,0-1.04.3-1.04.95V33.27s-8.73,2.11-9.32,2.28a1.41,1.41,0,0,0-1.02,1.36V47.88a1.411,1.411,0,0,0,1.41,1.42h8.93V75.68c0,19.6,13.75,21.52,23.02,21.52a38.908,38.908,0,0,0,10.15-1.67,1.316,1.316,0,0,0,.8-1.28V82.19a1.415,1.415,0,0,0-1.4-1.42c-.75,0-2.65.3-4.61.3-6.28,0-8.41-2.92-8.41-6.7V49.3h12.78a1.417,1.417,0,0,0,1.41-1.42V34.14a1.411,1.411,0,0,0-1.41-1.42Z" transform="translate(-0.064 0.6)"/>
          <g id="I" transform="translate(79.505 5.54)">
            <path id="Caminho_6" data-name="Caminho 6" class="cls-2" d="M101.53,16.65a10.991,10.991,0,1,0-10.99,11.1A11.039,11.039,0,0,0,101.53,16.65Z" transform="translate(-79.55 -5.55)"/>
            <path id="Caminho_7" data-name="Caminho 7" class="cls-2" d="M100.31,75.32V34.16a1.417,1.417,0,0,0-1.41-1.42H81.91a1.626,1.626,0,0,0-1.48,1.59V93.31c0,1.73,1.08,2.25,2.48,2.25H98.22c1.68,0,2.09-.82,2.09-2.28V75.33Z" transform="translate(-79.55 -4.94)"/>
          </g>
          <path id="G" class="cls-2" d="M69.37,41.951H39.1a1.413,1.413,0,0,0-1.41,1.419V58.263a1.421,1.421,0,0,0,1.41,1.429H50.91V78.2s-2.65.906-9.98.906c-8.65,0-20.73-3.18-20.73-29.906S32.78,18.948,44.59,18.948c10.22,0,14.63,1.811,17.43,2.687a1.424,1.424,0,0,0,1.69-1.4l3.38-14.39a1.3,1.3,0,0,0-.54-1.107C65.41,3.924,58.47.01,40.93.01,20.73,0,0,8.654,0,50.233S23.73,98.01,43.73,98.01c16.56,0,26.6-7.124,26.6-7.124a1.24,1.24,0,0,0,.46-1.077V43.37a1.413,1.413,0,0,0-1.41-1.419Z" transform="translate(0 -0.01)"/>
        </g>
      </g>
      <path id="GitHub_Icon" class="cls-3" d="M98.081,0C43.845,0,0,44.916,0,100.484,0,144.9,28.093,182.5,67.065,195.809c4.873,1,6.657-2.162,6.657-4.822,0-2.33-.161-10.314-.161-18.634C46.278,178.343,40.6,160.374,40.6,160.374c-4.385-11.646-10.881-14.639-10.881-14.639-8.93-6.156.65-6.156.65-6.156,9.906.666,15.1,10.314,15.1,10.314,8.767,15.3,22.9,10.98,28.579,8.318.811-6.488,3.411-10.98,6.171-13.475-21.761-2.33-44.656-10.98-44.656-49.578A39.715,39.715,0,0,1,45.63,68.21c-.974-2.495-4.385-12.811.976-26.619,0,0,8.281-2.662,26.955,10.314a92,92,0,0,1,49.041,0c18.675-12.977,26.957-10.314,26.957-10.314,5.36,13.808,1.947,24.124.974,26.619C156.865,75.2,160.6,84.18,160.6,95.16c0,38.6-22.9,47.081-44.818,49.578,3.574,3.16,6.657,9.149,6.657,18.632,0,13.475-.161,24.29-.161,27.615,0,2.662,1.787,5.825,6.657,4.826C167.907,182.5,196,144.9,196,100.484,196.16,44.916,152.155,0,98.081,0Z" transform="translate(87 46)"/>
    </g>
  </g>
</svg>
