<svg xmlns="http://www.w3.org/2000/svg" xmlns:xlink="http://www.w3.org/1999/xlink" width="585" height="196" viewBox="0 0 585 196">
  <defs>
    <style>
      .cls-1 {
        clip-path: url(#clip-Youtube_Icon_Logo);
      }

      .cls-2 {
        fill: #fff;
      }
    </style>
    <clipPath id="clip-Youtube_Icon_Logo">
      <rect width="585" height="196"/>
    </clipPath>
  </defs>
  <g id="Youtube_Icon_Logo" data-name="Youtube_Icon&amp;Logo" class="cls-1">
    <g id="YouTube-Logo.wine" transform="translate(0 20)">
      <g id="g7433" transform="translate(0 0.474)">
        <path id="Subtração_2" data-name="Subtração 2" class="cls-2" d="M-2644.5-382.422c-.171,0-17.312-.007-36.349-.593-11.181-.344-20.818-.818-28.643-1.408-9.781-.737-16.744-1.66-20.695-2.742a27.6,27.6,0,0,1-19.3-19.518c-2.33-8.858-3.432-22.869-3.946-33.063-.557-11.048-.564-20.112-.564-20.2s.006-9.109.564-20.134c.514-10.173,1.616-24.179,3.946-33.131a28.171,28.171,0,0,1,7.148-12.45,27.393,27.393,0,0,1,12.154-7.251c3.909-1.04,10.846-1.927,20.619-2.636,7.819-.567,17.459-1.023,28.652-1.354,19.059-.564,36.245-.57,36.417-.57s17.358.007,36.417.593c11.2.344,20.835.818,28.652,1.408,9.773.738,16.71,1.66,20.619,2.742a27.592,27.592,0,0,1,19.3,19.518,107.457,107.457,0,0,1,2.684,15.662c.569,5.153,1.016,11.061,1.331,17.56.539,11.154.5,20.136.5,20.225s-.006,9.114-.564,20.134c-.514,10.174-1.617,24.18-3.946,33.131a27.593,27.593,0,0,1-19.3,19.518c-3.909,1.04-10.846,1.927-20.619,2.636-7.818.567-17.458,1.023-28.652,1.354C-2627.143-382.428-2644.329-382.422-2644.5-382.422Zm-21.828-110.725v66.4l57.005-33.2-57.005-33.2Z" transform="translate(2754 537.474)"/>
      </g>
      <g id="g7451" transform="translate(243.524 6.02)">
        <g id="g7449" transform="translate(24.477 22.98)">
          <path id="path7435" class="cls-2" d="M178.153,92.123c-3.074-2.047-5.251-5.245-6.532-9.723C170.34,78.05,169.7,72.165,169.7,65V55.149c0-7.292.768-13.178,2.177-17.655,1.537-4.478,3.842-7.676,6.916-9.723,3.2-2.047,7.3-3.07,12.424-3.07,5,0,9.094,1.023,12.168,3.07s5.251,5.373,6.66,9.723,2.177,10.235,2.177,17.655V65c0,7.292-.64,13.05-2.049,17.527-1.409,4.35-3.586,7.676-6.66,9.723s-7.3,3.07-12.552,3.07c-5.379-.128-9.734-1.151-12.808-3.2Zm17.291-10.747c.9-2.175,1.281-5.885,1.281-10.875V49.264c0-4.862-.384-8.444-1.281-10.747s-2.305-3.326-4.483-3.326a4.459,4.459,0,0,0-4.355,3.326c-.9,2.3-1.281,5.885-1.281,10.747V70.5c0,4.99.384,8.7,1.281,10.875a4.5,4.5,0,0,0,4.483,3.326C193.139,84.7,194.548,83.679,195.444,81.376Z" transform="translate(-123.335 2.679)"/>
          <path id="path7437" class="cls-2" d="M364.157,65.184v3.454a92.585,92.585,0,0,0,.384,9.851c.256,2.175.768,3.838,1.665,4.734a4.5,4.5,0,0,0,3.842,1.535,4.805,4.805,0,0,0,4.739-2.687c.9-1.791,1.281-4.734,1.409-8.956l13.192.768a13.188,13.188,0,0,1,.128,2.431c0,6.269-1.665,11-5.123,14.073s-8.325,4.606-14.6,4.606c-7.557,0-12.808-2.431-15.882-7.164S349.3,75.8,349.3,65.824v-11.9c0-10.235,1.537-17.655,4.739-22.389S362.62,24.5,370.177,24.5c5.251,0,9.35,1.023,12.168,2.943s4.739,4.99,5.892,8.956c1.153,4.094,1.665,9.723,1.665,16.888V64.928H364.157Zm1.921-28.658a9.765,9.765,0,0,0-1.537,4.734,93.69,93.69,0,0,0-.384,9.979V56.1h11.271V51.239a97.069,97.069,0,0,0-.384-9.979,8.758,8.758,0,0,0-1.665-4.734,4.625,4.625,0,0,0-3.586-1.407,3.889,3.889,0,0,0-3.714,1.407Z" transform="translate(-72.902 2.623)"/>
          <path id="path7439" class="cls-2" d="M150.919,69.073,133.5,6h15.242l6.148,28.53q2.305,10.555,3.458,18.039h.384c.512-3.582,1.665-9.467,3.458-17.911L168.594,6h15.242L166.161,69.073V99.266H151.047V69.073Z" transform="translate(-133.5 -2.546)"/>
          <path id="path7441" class="cls-2" d="M250.726,25.7V93.891h-12.04l-1.281-8.316h-.384c-3.2,6.269-8.2,9.467-14.729,9.467-4.483,0-7.813-1.535-9.99-4.478s-3.2-7.548-3.2-13.945V25.7h15.37V75.723a15.579,15.579,0,0,0,1.025,6.525,3.454,3.454,0,0,0,3.33,1.919,6.577,6.577,0,0,0,3.842-1.279,6.237,6.237,0,0,0,2.69-3.071V25.7Z" transform="translate(-112.271 2.958)"/>
          <path id="path7443" class="cls-2" d="M312.226,25.7V93.891h-12.04l-1.281-8.316h-.384c-3.2,6.269-8.2,9.467-14.729,9.467-4.483,0-7.813-1.535-9.99-4.478s-3.2-7.548-3.2-13.945V25.7h15.37V75.723a15.578,15.578,0,0,0,1.025,6.525,3.454,3.454,0,0,0,3.33,1.919,6.577,6.577,0,0,0,3.842-1.279,6.237,6.237,0,0,0,2.69-3.071V25.7Z" transform="translate(-95.001 2.958)"/>
          <path id="path7445" class="cls-2" d="M284.169,18.41H268.927V99.266H253.942V18.41H238.7V6h45.469Z" transform="translate(-103.959 -2.546)"/>
          <path id="path7447" class="cls-2" d="M351.926,42.833c-.9-4.35-2.434-7.42-4.483-9.339a12.238,12.238,0,0,0-8.581-2.943,13.819,13.819,0,0,0-7.941,2.431,15.655,15.655,0,0,0-5.636,6.269h-.128V3.3H310.3v96.721h12.68l1.537-6.4h.384a13.08,13.08,0,0,0,5.379,5.5,16.653,16.653,0,0,0,7.941,2.047c5.251,0,8.966-2.431,11.4-7.164s3.714-12.282,3.714-22.389V60.872c-.128-7.8-.512-13.817-1.409-18.039ZM337.837,70.6a88.452,88.452,0,0,1-.64,11.642,13.007,13.007,0,0,1-2.049,6.013,4.991,4.991,0,0,1-3.842,1.791,6.35,6.35,0,0,1-3.458-.9,7.392,7.392,0,0,1-2.562-2.687V47.822a10.46,10.46,0,0,1,2.69-4.606,6.216,6.216,0,0,1,4.1-1.791,4.154,4.154,0,0,1,3.586,1.791c.9,1.279,1.409,3.326,1.793,6.141a103.023,103.023,0,0,1,.512,12.282V70.6Z" transform="translate(-83.853 -3.3)"/>
        </g>
      </g>
    </g>
  </g>
</svg>
